<mxfile host="app.diagrams.net" modified="2021-02-26T16:45:07.502Z" agent="5.0 (Windows NT 10.0; Win64; x64) AppleWebKit/537.36 (KHTML, like Gecko) Chrome/88.0.4324.182 Safari/537.36" etag="riuS6EI7_eBjT5YcM_Hh" version="14.4.3" type="github">
  <diagram name="Page-1" id="efa7a0a1-bf9b-a30e-e6df-94a7791c09e9">
    <mxGraphModel dx="1422" dy="794" grid="1" gridSize="10" guides="1" tooltips="1" connect="1" arrows="1" fold="1" page="1" pageScale="1" pageWidth="826" pageHeight="1169" background="#ffffff" math="0" shadow="0">
      <root>
        <mxCell id="0" />
        <mxCell id="1" parent="0" />
        <mxCell id="19" value="&lt;p style=&quot;margin: 4px 0px 0px ; text-align: center ; font-size: 17px&quot;&gt;&lt;font style=&quot;font-size: 17px&quot;&gt;&lt;b&gt;User&lt;/b&gt;&lt;/font&gt;&lt;/p&gt;&lt;hr style=&quot;font-size: 17px&quot;&gt;&lt;p style=&quot;margin: 0px 0px 0px 8px ; font-size: 14px&quot;&gt;&lt;font style=&quot;font-size: 14px&quot;&gt;&lt;i&gt;attr1&lt;/i&gt;&lt;/font&gt;&lt;/p&gt;&lt;p style=&quot;margin: 0px 0px 0px 8px ; font-size: 14px&quot;&gt;&lt;font style=&quot;font-size: 14px&quot;&gt;&lt;i&gt;attr2&lt;/i&gt;&lt;/font&gt;&lt;/p&gt;" style="verticalAlign=top;align=left;overflow=fill;fontSize=12;fontFamily=Helvetica;html=1;shadow=1;fillColor=#d5e8d4;strokeWidth=4;" parent="1" vertex="1">
          <mxGeometry x="140" y="486" width="160" height="98.36" as="geometry" />
        </mxCell>
        <mxCell id="22" value="&lt;p style=&quot;margin: 4px 0px 0px ; text-align: center&quot;&gt;&lt;font style=&quot;font-size: 17px&quot;&gt;&lt;b&gt;Source&lt;/b&gt;&lt;/font&gt;&lt;/p&gt;&lt;hr&gt;&lt;p style=&quot;margin: 0px 0px 0px 8px ; font-size: 14px&quot;&gt;&lt;font style=&quot;font-size: 14px&quot;&gt;&lt;i&gt;attr1&lt;/i&gt;&lt;/font&gt;&lt;/p&gt;&lt;p style=&quot;margin: 0px 0px 0px 8px ; font-size: 14px&quot;&gt;&lt;font style=&quot;font-size: 14px&quot;&gt;&lt;i&gt;attr2&lt;/i&gt;&lt;/font&gt;&lt;/p&gt;" style="verticalAlign=top;align=left;overflow=fill;fontSize=12;fontFamily=Helvetica;html=1;shadow=1;fillColor=#fff2cc;strokeWidth=4;" parent="1" vertex="1">
          <mxGeometry x="880" y="486.64" width="160" height="98.36" as="geometry" />
        </mxCell>
        <mxCell id="23" value="&lt;p style=&quot;margin: 4px 0px 0px ; text-align: center&quot;&gt;&lt;font style=&quot;font-size: 17px&quot; color=&quot;#000000&quot;&gt;&lt;b&gt;Tag&lt;/b&gt;&lt;/font&gt;&lt;/p&gt;&lt;hr&gt;&lt;p style=&quot;margin: 0px 0px 0px 8px ; font-size: 14px&quot;&gt;&lt;font style=&quot;font-size: 14px&quot; color=&quot;#000000&quot;&gt;&lt;i&gt;attr1&lt;/i&gt;&lt;/font&gt;&lt;/p&gt;&lt;p style=&quot;margin: 0px 0px 0px 8px ; font-size: 14px&quot;&gt;&lt;font style=&quot;font-size: 14px&quot; color=&quot;#000000&quot;&gt;&lt;i&gt;attr2&lt;/i&gt;&lt;/font&gt;&lt;/p&gt;" style="verticalAlign=top;align=left;overflow=fill;fontSize=12;fontFamily=Helvetica;html=1;strokeColor=#003366;shadow=1;fillColor=#D4E1F5;fontColor=#003366;strokeWidth=4;" parent="1" vertex="1">
          <mxGeometry x="591.08" y="101.64" width="160" height="98.36" as="geometry" />
        </mxCell>
        <mxCell id="qFgexriZszQATxeej6hb-135" value="&lt;p style=&quot;margin: 4px 0px 0px ; text-align: center ; font-size: 17px&quot;&gt;&lt;font style=&quot;font-size: 17px&quot;&gt;&lt;b&gt;Group&lt;/b&gt;&lt;/font&gt;&lt;/p&gt;&lt;hr style=&quot;font-size: 17px&quot;&gt;&lt;p style=&quot;margin: 0px ; margin-left: 8px&quot;&gt;&lt;br&gt;&lt;/p&gt;" style="verticalAlign=top;align=left;overflow=fill;fontSize=12;fontFamily=Helvetica;html=1;strokeColor=#36393d;shadow=1;fillColor=#eeeeee;strokeWidth=4;" vertex="1" parent="1">
          <mxGeometry x="380" y="320" width="160" height="50" as="geometry" />
        </mxCell>
        <mxCell id="qFgexriZszQATxeej6hb-138" value="&lt;p style=&quot;margin: 4px 0px 0px ; text-align: center ; font-size: 17px&quot;&gt;&lt;b&gt;Faculty&lt;/b&gt;&lt;/p&gt;&lt;hr style=&quot;font-size: 17px&quot;&gt;&lt;p style=&quot;margin: 0px ; margin-left: 8px&quot;&gt;&lt;br&gt;&lt;/p&gt;" style="verticalAlign=top;align=left;overflow=fill;fontSize=12;fontFamily=Helvetica;html=1;shadow=1;strokeWidth=4;" vertex="1" parent="1">
          <mxGeometry x="380" y="200" width="160" height="50" as="geometry" />
        </mxCell>
        <mxCell id="qFgexriZszQATxeej6hb-139" value="&lt;p style=&quot;margin: 4px 0px 0px ; text-align: center&quot;&gt;&lt;font style=&quot;font-size: 17px&quot;&gt;&lt;b&gt;Feed Object&lt;/b&gt;&lt;/font&gt;&lt;/p&gt;&lt;hr style=&quot;font-size: 15px&quot;&gt;&lt;p style=&quot;margin: 0px 0px 0px 8px ; font-size: 14px&quot;&gt;&lt;font style=&quot;font-size: 14px&quot;&gt;&lt;i&gt;type&lt;/i&gt;&lt;/font&gt;&lt;/p&gt;&lt;p style=&quot;margin: 0px 0px 0px 8px ; font-size: 14px&quot;&gt;time ?????&lt;/p&gt;" style="verticalAlign=top;align=left;overflow=fill;fontSize=12;fontFamily=Helvetica;html=1;shadow=1;fillColor=#ffcccc;strokeWidth=4;strokeColor=#36393d;" vertex="1" parent="1">
          <mxGeometry x="530" y="480.82" width="160" height="110" as="geometry" />
        </mxCell>
        <mxCell id="qFgexriZszQATxeej6hb-140" value="&lt;span style=&quot;font-weight: bold ; font-size: 14px&quot;&gt;produced_by&lt;/span&gt;&lt;br&gt;&lt;div style=&quot;text-align: left&quot;&gt;&lt;font style=&quot;font-size: 14px&quot;&gt;&lt;i&gt;time: t1&lt;/i&gt;&lt;/font&gt;&lt;/div&gt;" style="html=1;verticalAlign=bottom;endArrow=block;exitX=0;exitY=0.5;exitDx=0;exitDy=0;entryX=1;entryY=0.5;entryDx=0;entryDy=0;strokeWidth=4;" edge="1" parent="1" source="22" target="qFgexriZszQATxeej6hb-139">
          <mxGeometry x="0.158" y="-6" width="80" relative="1" as="geometry">
            <mxPoint x="770" y="430" as="sourcePoint" />
            <mxPoint x="850" y="430" as="targetPoint" />
            <Array as="points">
              <mxPoint x="790" y="536" />
            </Array>
            <mxPoint as="offset" />
          </mxGeometry>
        </mxCell>
        <mxCell id="qFgexriZszQATxeej6hb-142" value="&lt;div style=&quot;text-align: left&quot;&gt;&lt;b&gt;&lt;font style=&quot;font-size: 14px&quot;&gt;seen&lt;/font&gt;&lt;/b&gt;&lt;/div&gt;&lt;div style=&quot;text-align: left ; font-size: 14px&quot;&gt;&lt;font style=&quot;font-size: 14px&quot;&gt;&lt;i&gt;time: t2&lt;/i&gt;&lt;/font&gt;&lt;/div&gt;&lt;div style=&quot;text-align: left ; font-size: 14px&quot;&gt;&lt;font style=&quot;font-size: 14px&quot;&gt;&lt;i&gt;duration: tt&lt;/i&gt;&lt;/font&gt;&lt;/div&gt;" style="html=1;verticalAlign=bottom;endArrow=block;strokeWidth=4;exitX=1;exitY=0.5;exitDx=0;exitDy=0;entryX=0;entryY=0.5;entryDx=0;entryDy=0;" edge="1" parent="1" source="19" target="qFgexriZszQATxeej6hb-139">
          <mxGeometry width="80" relative="1" as="geometry">
            <mxPoint x="770" y="380" as="sourcePoint" />
            <mxPoint x="850" y="380" as="targetPoint" />
          </mxGeometry>
        </mxCell>
        <mxCell id="qFgexriZszQATxeej6hb-143" value="&lt;font style=&quot;font-size: 13px&quot;&gt;&lt;b&gt;belong&lt;/b&gt;&lt;/font&gt;" style="html=1;verticalAlign=bottom;endArrow=block;strokeWidth=4;exitX=0.5;exitY=0;exitDx=0;exitDy=0;entryX=0.5;entryY=1;entryDx=0;entryDy=0;" edge="1" parent="1" source="qFgexriZszQATxeej6hb-135" target="qFgexriZszQATxeej6hb-138">
          <mxGeometry x="-0.1429" width="80" relative="1" as="geometry">
            <mxPoint x="560" y="290" as="sourcePoint" />
            <mxPoint x="640" y="290" as="targetPoint" />
            <mxPoint as="offset" />
          </mxGeometry>
        </mxCell>
        <mxCell id="qFgexriZszQATxeej6hb-144" value="&lt;font style=&quot;font-size: 14px&quot;&gt;&lt;b&gt;member_of&lt;/b&gt;&lt;/font&gt;" style="html=1;verticalAlign=bottom;endArrow=block;strokeWidth=4;exitX=0.5;exitY=0;exitDx=0;exitDy=0;entryX=0.5;entryY=1;entryDx=0;entryDy=0;" edge="1" parent="1" source="19" target="qFgexriZszQATxeej6hb-135">
          <mxGeometry width="80" relative="1" as="geometry">
            <mxPoint x="790" y="400" as="sourcePoint" />
            <mxPoint x="870" y="400" as="targetPoint" />
          </mxGeometry>
        </mxCell>
        <mxCell id="qFgexriZszQATxeej6hb-145" value="&lt;font style=&quot;font-size: 14px&quot;&gt;&lt;b&gt;has&lt;/b&gt;&lt;/font&gt;" style="html=1;verticalAlign=bottom;endArrow=block;strokeWidth=4;exitX=0.5;exitY=0;exitDx=0;exitDy=0;entryX=0;entryY=0.5;entryDx=0;entryDy=0;" edge="1" parent="1" source="19" target="23">
          <mxGeometry width="80" relative="1" as="geometry">
            <mxPoint x="800" y="410" as="sourcePoint" />
            <mxPoint x="880" y="410" as="targetPoint" />
            <Array as="points">
              <mxPoint x="220" y="151" />
            </Array>
          </mxGeometry>
        </mxCell>
        <mxCell id="qFgexriZszQATxeej6hb-146" value="&lt;span style=&quot;font-size: 14px&quot;&gt;&lt;b&gt;mentioned&lt;/b&gt;&lt;/span&gt;" style="html=1;verticalAlign=bottom;endArrow=block;strokeWidth=4;exitX=0.5;exitY=0;exitDx=0;exitDy=0;entryX=1;entryY=0.5;entryDx=0;entryDy=0;" edge="1" parent="1" source="qFgexriZszQATxeej6hb-139" target="qFgexriZszQATxeej6hb-138">
          <mxGeometry width="80" relative="1" as="geometry">
            <mxPoint x="810" y="420" as="sourcePoint" />
            <mxPoint x="890" y="420" as="targetPoint" />
            <Array as="points">
              <mxPoint x="670" y="290" />
            </Array>
          </mxGeometry>
        </mxCell>
      </root>
    </mxGraphModel>
  </diagram>
</mxfile>
